<svg width="35" height="35" viewBox="0 0 35 35" fill="none" xmlns="http://www.w3.org/2000/svg">
<path d="M30.2925 19.1843L28.2975 13.1993C28.0081 12.328 27.4515 11.5699 26.7066 11.033C25.9618 10.496 25.0667 10.2075 24.1486 10.2083H10.8515C9.9333 10.2075 9.03821 10.496 8.29339 11.033C7.54858 11.5699 6.99192 12.328 6.70252 13.1993L4.70752 19.1843C4.17712 19.4065 3.72418 19.7804 3.40557 20.2591C3.08696 20.7378 2.91688 21.2999 2.91669 21.875V26.25C2.91669 27.3262 3.50585 28.2566 4.37502 28.7627V30.625C4.37502 31.0117 4.52867 31.3827 4.80216 31.6562C5.07565 31.9296 5.44658 32.0833 5.83335 32.0833H7.29169C7.67846 32.0833 8.04939 31.9296 8.32288 31.6562C8.59637 31.3827 8.75002 31.0117 8.75002 30.625V29.1666H26.25V30.625C26.25 31.0117 26.4037 31.3827 26.6772 31.6562C26.9506 31.9296 27.3216 32.0833 27.7084 32.0833H29.1667C29.5535 32.0833 29.9244 31.9296 30.1979 31.6562C30.4714 31.3827 30.625 31.0117 30.625 30.625V28.7627C31.0675 28.5089 31.4352 28.1431 31.6912 27.7019C31.9473 27.2608 32.0825 26.76 32.0834 26.25V21.875C32.0834 20.6631 31.344 19.6262 30.2925 19.1843ZM10.8515 13.125H24.1471C24.4533 13.1249 24.7518 13.2212 25.0002 13.4002C25.2486 13.5793 25.4343 13.832 25.5311 14.1225L27.144 18.9583H7.85606L9.46752 14.1225C9.66731 13.526 10.2244 13.125 10.8515 13.125ZM8.02085 26.25C7.73349 26.2499 7.44896 26.1932 7.18351 26.0831C6.91806 25.9731 6.67688 25.8118 6.47376 25.6085C6.06352 25.198 5.83316 24.6414 5.83335 24.061C5.83355 23.4806 6.06428 22.9241 6.47479 22.5139C6.8853 22.1037 7.44196 21.8733 8.02231 21.8735C8.60267 21.8737 9.15917 22.1044 9.56941 22.5149C9.97965 22.9254 10.21 23.4821 10.2098 24.0625C10.2096 24.6428 9.97889 25.1993 9.56838 25.6096C9.15787 26.0198 8.60121 26.2502 8.02085 26.25ZM26.9792 26.25C26.3988 26.2498 25.8423 26.019 25.4321 25.6085C25.0219 25.198 24.7915 24.6414 24.7917 24.061C24.7919 23.4806 25.0226 22.9241 25.4331 22.5139C25.8436 22.1037 26.4003 21.8733 26.9806 21.8735C27.561 21.8737 28.1175 22.1044 28.5277 22.5149C28.938 22.9254 29.1683 23.4821 29.1681 24.0625C29.168 24.6428 28.9372 25.1993 28.5267 25.6096C28.1162 26.0198 27.5595 26.2502 26.9792 26.25ZM7.69565 7.29163C8.20169 8.15933 9.1321 8.74996 10.2084 8.74996C11.2846 8.74996 12.215 8.15933 12.7211 7.29163H22.2804C22.785 8.15933 23.7154 8.74996 24.7917 8.74996C25.8679 8.74996 26.7984 8.15933 27.3044 7.29163H24.7917V4.37496H27.3044C26.7984 3.50725 25.8679 2.91663 24.7917 2.91663C23.7154 2.91663 22.785 3.50725 22.279 4.37496H12.7211C12.215 3.50725 11.2846 2.91663 10.2084 2.91663C9.1321 2.91663 8.20169 3.50725 7.69565 4.37496H10.2084V7.29163H7.69565Z" fill="#134B6B"/>
</svg>
