<?xml version="1.0" standalone="no"?>
<!DOCTYPE svg PUBLIC "-//W3C//DTD SVG 20010904//EN"
 "http://www.w3.org/TR/2001/REC-SVG-20010904/DTD/svg10.dtd">
<svg version="1.0" xmlns="http://www.w3.org/2000/svg"
 width="1024.000000pt" height="354.000000pt" viewBox="0 0 1024.000000 354.000000"
 preserveAspectRatio="xMidYMid meet">

<g transform="translate(0.000000,354.000000) scale(0.100000,-0.100000)"
fill="#000000" stroke="none">
<path d="M8446 3495 c4 -8 1 -15 -5 -15 -14 0 -5 -43 16 -80 8 -14 12 -17 9
-8 -15 49 -18 91 -7 84 6 -4 9 -11 6 -15 -2 -5 0 -23 5 -41 6 -20 6 -39 0 -49
-8 -13 -9 -13 -10 -1 0 19 -17 1 -23 -25 -4 -15 -5 -13 -6 8 0 15 4 27 11 27
9 0 9 3 0 12 -17 17 -22 7 -25 -45 -1 -25 -5 -43 -9 -40 -7 4 -12 -22 -11 -55
1 -7 -2 -11 -5 -7 -3 3 -15 -18 -27 -47 -12 -29 -34 -72 -48 -95 -15 -24 -27
-47 -27 -52 0 -5 -4 -11 -8 -13 -4 -1 -37 -43 -72 -91 -36 -48 -74 -100 -85
-115 -11 -15 -32 -43 -47 -62 -37 -49 -84 -152 -104 -230 -21 -83 -15 -202 15
-290 22 -63 117 -220 133 -220 4 0 8 30 8 68 0 81 19 157 55 218 15 25 80 101
145 168 134 140 198 231 243 349 29 78 31 89 32 230 0 88 -4 151 -10 155 -5 4
-11 20 -12 35 -1 15 -16 57 -32 92 -38 80 -127 207 -105 150z m54 -80 c5 3 6
-12 3 -32 -7 -48 -13 -55 -13 -15 0 16 -2 36 -3 44 -2 7 -2 10 0 5 3 -4 9 -5
13 -2z m30 -51 c0 -8 -4 -12 -10 -9 -5 3 -10 13 -10 21 0 8 5 12 10 9 6 -3 10
-13 10 -21z m-80 -51 c-11 -17 -11 -17 -6 0 3 10 6 24 7 30 0 9 2 9 5 0 3 -7
0 -20 -6 -30z"/>
<path d="M8700 2929 c1 -19 2 -43 1 -54 -1 -17 -3 -18 -11 -5 -8 11 -9 7 -4
-14 5 -19 3 -27 -3 -23 -6 4 -13 -7 -16 -26 -3 -17 -20 -63 -38 -102 -18 -38
-33 -76 -32 -83 1 -7 -1 -11 -4 -8 -3 3 -28 -26 -54 -64 -27 -38 -97 -120
-154 -181 -117 -124 -156 -175 -175 -233 -27 -83 -8 -211 47 -321 32 -63 94
-154 122 -179 l21 -19 0 44 c1 72 27 195 53 253 41 90 82 140 178 222 180 153
249 270 249 422 0 43 -3 82 -7 85 -3 4 -8 19 -9 34 -2 15 -8 29 -13 31 -5 2
-7 10 -4 19 5 12 3 14 -7 8 -8 -5 -11 -3 -8 6 7 19 -32 90 -45 82 -6 -3 -7 -1
-3 6 7 11 -14 47 -62 105 l-24 30 2 -35z m37 -42 c3 -18 1 -19 -8 -7 -9 12
-10 11 -6 -5 2 -11 -2 -26 -10 -33 -16 -16 -17 -2 -1 35 6 15 10 33 9 38 -2 6
1 7 5 2 4 -4 9 -18 11 -30z m19 -41 c0 -14 -5 -21 -9 -17 -4 4 -5 15 -1 24 9
24 12 21 10 -7z"/>
<path d="M6022 1528 c-31 -39 -6 -98 42 -98 28 0 56 29 56 57 0 42 -72 72 -98
41z"/>
<path d="M8136 1518 c-21 -29 -20 -51 2 -71 38 -35 102 -9 102 40 0 49 -76 72
-104 31z"/>
<path d="M1771 1443 c-6 -43 -14 -93 -17 -110 -5 -32 -14 -37 -53 -35 -34 1
-62 -18 -59 -41 3 -19 9 -22 45 -23 24 0 45 -3 49 -6 3 -3 -11 -121 -30 -263
-20 -141 -36 -258 -36 -261 0 -4 70 -6 70 -1 0 1 16 117 35 257 19 140 35 258
35 263 0 4 27 7 60 7 56 0 60 2 66 25 8 34 4 38 -61 43 -30 2 -55 7 -55 11 0
3 7 49 15 101 8 52 15 98 15 103 0 4 -15 7 -34 7 l-33 0 -12 -77z"/>
<path d="M5197 1469 c-6 -43 -19 -138 -76 -559 l-27 -205 34 -3 c19 -2 35 -2
37 0 2 2 22 140 44 308 39 284 45 320 55 309 9 -11 188 -255 311 -424 160
-221 144 -200 150 -193 3 3 28 169 55 369 27 200 52 381 56 402 6 37 6 37 -30
37 -43 0 -38 17 -71 -235 -41 -303 -53 -386 -58 -391 -3 -3 -18 14 -35 38 -16
24 -58 82 -93 129 -35 47 -116 157 -179 244 -63 87 -127 172 -141 188 l-26 31
-6 -45z"/>
<path d="M376 1327 c-55 -94 -157 -272 -228 -395 -70 -122 -128 -224 -128
-227 0 -3 17 -5 38 -5 l38 0 70 122 c38 67 75 128 82 135 11 10 53 13 182 13
l169 -2 27 -81 c61 -186 62 -187 100 -187 19 0 34 3 34 8 0 26 -265 792 -274
792 -6 0 -56 -78 -110 -173z m149 -137 c25 -74 45 -140 45 -147 0 -16 -255
-19 -265 -3 -4 6 15 48 42 93 59 101 90 155 105 185 6 12 15 19 20 14 4 -4 28
-68 53 -142z"/>
<path d="M2251 1295 c-102 -32 -197 -129 -227 -233 -20 -68 -14 -182 11 -231
24 -46 82 -103 130 -126 55 -27 171 -27 244 0 221 81 291 388 123 535 -73 65
-182 86 -281 55z m205 -80 c154 -90 126 -350 -45 -437 -90 -46 -205 -35 -270
25 -87 80 -79 274 16 363 80 75 216 97 299 49z"/>
<path d="M3004 1292 c-138 -49 -223 -162 -232 -305 -11 -177 93 -287 268 -287
84 0 135 19 202 72 l40 32 -7 -55 c-11 -86 -48 -154 -103 -186 -38 -22 -61
-28 -133 -31 -76 -4 -94 -1 -134 18 -25 12 -58 37 -72 55 -24 30 -29 32 -55
23 -35 -12 -35 -18 -2 -58 67 -79 168 -117 281 -107 140 13 241 89 272 205 14
52 92 613 86 622 -2 4 -18 7 -34 8 -29 1 -30 -1 -37 -54 -3 -30 -10 -54 -14
-54 -4 0 -21 16 -39 35 -68 76 -187 103 -287 67z m201 -71 c81 -36 121 -113
112 -212 -9 -102 -57 -173 -151 -221 -50 -26 -176 -29 -222 -5 -39 20 -80 65
-94 102 -14 36 -14 129 -1 174 10 33 51 94 81 119 68 58 198 79 275 43z"/>
<path d="M3788 1297 c-85 -24 -179 -111 -221 -205 -26 -60 -29 -188 -5 -243
23 -54 83 -115 136 -141 95 -46 257 -22 323 48 32 34 42 30 37 -16 l-4 -41 36
3 c34 3 35 5 42 53 33 235 58 421 64 478 l7 68 -34 -3 c-32 -4 -34 -7 -43 -54
-5 -27 -10 -51 -13 -53 -2 -3 -17 12 -34 32 -17 21 -50 47 -72 59 -52 26 -154
33 -219 15z m231 -95 c111 -88 109 -265 -4 -379 -61 -61 -108 -77 -206 -71
-81 4 -138 38 -169 99 -80 156 25 362 197 388 71 10 141 -4 182 -37z"/>
<path d="M4440 1288 c-55 -29 -81 -64 -87 -120 -7 -65 13 -96 116 -173 49 -37
94 -78 100 -92 21 -46 13 -83 -24 -120 -34 -34 -38 -35 -90 -31 -43 4 -64 12
-97 38 l-41 33 -19 -23 c-18 -23 -18 -23 4 -47 52 -56 155 -85 222 -63 99 32
151 134 115 227 -15 39 -43 67 -125 125 -84 59 -105 89 -92 135 20 74 124 85
195 21 21 -20 21 -20 39 6 16 26 16 28 -6 51 -54 57 -136 70 -210 33z"/>
<path d="M6430 1295 c-98 -32 -198 -135 -226 -232 -36 -123 0 -249 88 -313 55
-40 109 -53 193 -48 74 5 115 21 178 70 l37 30 0 -24 c0 -44 -27 -136 -48
-166 -12 -17 -45 -42 -74 -56 -42 -21 -66 -26 -127 -26 -90 0 -151 24 -196 75
-28 31 -32 33 -58 22 l-28 -12 23 -35 c33 -49 108 -97 176 -111 171 -35 335
45 377 183 18 61 97 617 90 635 -2 7 -15 11 -27 9 -13 -3 -26 -5 -29 -5 -4 -1
-10 -26 -14 -56 l-6 -55 -42 43 c-23 23 -60 51 -81 61 -52 25 -149 30 -206 11z
m208 -81 c66 -33 93 -75 99 -157 6 -75 -8 -131 -45 -183 -42 -58 -99 -93 -170
-104 -157 -26 -262 55 -262 202 0 196 206 328 378 242z"/>
<path d="M7227 1300 c-120 -31 -221 -134 -253 -261 -38 -150 43 -304 182 -345
102 -29 232 -1 308 68 l41 38 -24 20 -23 20 -39 -34 c-50 -42 -110 -60 -192
-54 -109 7 -175 70 -193 186 l-7 42 271 0 c266 0 271 0 277 21 9 29 -3 106
-25 156 -20 46 -76 105 -122 129 -36 19 -150 27 -201 14z m172 -80 c21 -10 50
-33 64 -50 28 -32 52 -104 42 -120 -8 -14 -442 -13 -450 0 -3 6 6 32 20 59 28
50 86 99 140 119 51 18 141 14 184 -8z"/>
<path d="M7925 1299 c-17 -4 -46 -24 -65 -43 l-35 -34 -5 36 c-4 33 -8 37 -35
38 l-31 1 -24 -176 c-13 -97 -31 -230 -40 -296 l-16 -120 29 -3 c17 -2 33 1
37 7 3 6 14 73 24 149 10 75 25 164 33 197 30 123 89 185 176 185 41 0 48 3
61 29 15 27 14 29 -7 35 -29 8 -65 6 -102 -5z"/>
<path d="M8551 1296 c-60 -20 -144 -79 -175 -124 -52 -75 -70 -132 -69 -212 2
-89 25 -150 74 -197 108 -100 245 -109 379 -22 l60 39 0 -40 c0 -39 1 -40 33
-40 l34 0 22 168 c12 92 28 214 36 272 21 156 21 157 -17 156 -31 -1 -33 -3
-43 -58 l-10 -57 -33 40 c-18 21 -52 49 -75 61 -53 27 -155 33 -216 14z m205
-76 c24 -12 54 -39 70 -62 25 -35 30 -53 33 -120 3 -72 0 -85 -28 -142 -52
-105 -135 -151 -260 -144 -128 7 -196 81 -195 213 1 115 55 203 155 253 60 30
165 30 225 2z"/>
<path d="M1020 1294 c0 -1 -9 -60 -19 -130 -40 -269 -39 -313 9 -386 43 -65
99 -93 185 -93 115 1 198 62 230 170 14 47 46 249 61 380 l6 61 -31 2 c-18 1
-33 -3 -36 -10 -2 -7 -16 -100 -30 -207 -28 -214 -44 -265 -96 -302 -28 -20
-46 -24 -106 -24 -62 0 -75 3 -98 25 -64 59 -67 95 -30 343 14 93 25 170 25
171 0 2 -16 3 -35 2 -19 0 -35 -2 -35 -2z"/>
<path d="M6005 1278 c-6 -29 -75 -543 -75 -563 0 -10 11 -15 33 -15 l33 0 13
103 c7 56 24 187 37 290 14 104 24 191 21 193 -2 3 -16 7 -31 10 -20 3 -27 0
-31 -18z"/>
<path d="M8120 1286 c0 -14 -67 -505 -75 -553 -6 -32 -5 -33 29 -33 41 0 34
-30 76 300 42 324 41 295 3 296 -19 1 -33 -4 -33 -10z"/>
<path d="M9301 1125 c3 -2 87 -32 187 -65 101 -33 207 -72 237 -86 107 -51
185 -145 185 -224 0 -195 -456 -367 -1185 -446 -193 -22 -887 -30 -1111 -15
-241 17 -330 31 -634 100 -140 32 -340 65 -347 57 -7 -7 138 -72 232 -104 200
-69 482 -124 805 -159 209 -22 973 -26 1195 -5 401 37 731 97 969 178 182 61
348 170 382 251 74 174 -151 354 -580 464 -134 34 -350 69 -335 54z"/>
<path d="M1584 402 c-7 -4 -12 -59 -13 -153 -2 -125 0 -147 13 -152 14 -6 16
13 16 153 0 88 -1 160 -2 160 -2 0 -8 -4 -14 -8z"/>
<path d="M5342 402 c-18 -12 -13 -303 6 -310 9 -3 12 33 12 157 0 89 -1 161
-2 161 -2 0 -9 -4 -16 -8z"/>
<path d="M4370 360 c0 -33 -3 -40 -20 -40 -11 0 -20 -7 -20 -15 0 -8 9 -15 20
-15 18 0 20 -8 22 -97 4 -127 22 -125 26 2 2 87 4 95 22 95 11 0 20 7 20 15 0
8 -9 15 -20 15 -17 0 -20 7 -20 40 0 29 -4 40 -15 40 -11 0 -15 -11 -15 -40z"/>
<path d="M539 305 c-27 -15 -59 -69 -59 -102 0 -32 39 -84 75 -99 38 -16 75
-11 114 15 l24 16 -7 -35 c-10 -50 -29 -65 -86 -65 -37 0 -54 5 -73 23 -30 28
-47 12 -18 -17 46 -46 135 -45 181 4 21 22 24 36 28 150 4 111 3 125 -12 125
-10 0 -16 -8 -16 -21 l0 -20 -26 20 c-31 24 -87 27 -125 6z m129 -41 c24 -28
28 -64 10 -97 -18 -34 -39 -46 -81 -47 -92 0 -121 119 -39 165 36 20 81 11
110 -21z"/>
<path d="M869 305 c-26 -14 -59 -69 -59 -98 0 -36 24 -78 57 -98 78 -48 173 5
173 97 0 39 -5 51 -34 80 -27 27 -42 34 -72 34 -22 -1 -51 -7 -65 -15z m111
-32 c45 -42 49 -83 12 -124 -24 -27 -37 -33 -66 -32 -45 1 -74 25 -82 69 -7
40 12 84 46 101 37 19 57 16 90 -14z"/>
<path d="M1308 302 c-31 -18 -58 -67 -58 -104 0 -12 9 -37 20 -55 34 -56 143
-70 185 -23 26 29 15 32 -33 9 -36 -18 -46 -19 -77 -9 -66 22 -88 98 -41 145
42 42 73 41 159 -3 4 -2 7 3 7 12 0 40 -112 60 -162 28z"/>
<path d="M1733 285 c-33 -33 -35 -39 -31 -86 7 -66 38 -99 99 -106 35 -4 51 0
78 19 19 12 36 29 39 36 6 19 -23 14 -42 -7 -45 -50 -145 -21 -146 42 0 15 11
17 94 17 52 0 97 4 101 10 11 18 -23 79 -54 94 -52 27 -98 21 -138 -19z m140
-12 c36 -33 22 -43 -63 -43 -44 0 -80 3 -80 8 1 15 27 42 51 51 29 12 68 5 92
-16z"/>
<path d="M2054 286 c-29 -29 -34 -41 -34 -80 0 -62 37 -105 98 -113 34 -5 49
-1 72 15 l28 21 5 -20 c3 -12 10 -18 16 -14 7 4 11 49 11 116 0 90 -3 109 -15
109 -9 0 -15 -9 -15 -21 l0 -20 -26 20 c-43 34 -99 28 -140 -13z m144 -18 c32
-31 31 -96 -2 -127 -57 -54 -146 -15 -146 64 0 83 86 120 148 63z"/>
<path d="M2362 208 c3 -129 20 -149 29 -36 3 40 9 80 13 89 10 23 53 40 82 33
34 -9 44 -40 44 -130 0 -43 4 -74 10 -74 6 0 10 38 10 93 0 85 -2 96 -23 115
-34 32 -104 25 -129 -12 -5 -6 -8 -1 -8 12 0 13 -6 22 -15 22 -13 0 -15 -17
-13 -112z"/>
<path d="M2988 304 c-32 -17 -58 -61 -58 -98 0 -85 86 -136 163 -97 42 22 47
18 36 -25 -15 -53 -94 -72 -142 -34 -42 33 -67 21 -28 -14 47 -43 143 -37 181
11 18 23 20 40 20 149 0 76 -4 124 -10 124 -5 0 -10 -7 -10 -15 0 -18 -8 -18
-40 0 -32 18 -78 18 -112 -1z m102 -19 c35 -18 55 -71 41 -108 -22 -58 -103
-76 -146 -32 -44 43 -30 115 28 140 41 18 42 18 77 0z"/>
<path d="M3308 297 c-53 -45 -63 -102 -25 -158 60 -89 207 -43 207 65 0 93
-113 151 -182 93z m130 -29 c32 -31 31 -96 -3 -128 -54 -51 -145 -12 -145 61
0 40 15 65 48 84 32 18 69 11 100 -17z"/>
<path d="M3710 204 c0 -88 3 -115 13 -112 8 3 13 29 15 74 1 38 7 79 13 91 16
31 61 48 89 33 29 -16 40 -50 40 -131 0 -39 4 -69 10 -69 6 0 10 37 10 90 0
83 -2 93 -25 115 -34 35 -101 30 -127 -9 -5 -6 -8 -1 -8 12 0 13 -6 22 -15 22
-12 0 -15 -20 -15 -116z"/>
<path d="M4058 304 c-31 -16 -58 -61 -58 -94 0 -36 28 -85 59 -103 38 -22 79
-21 119 3 l32 20 0 -21 c0 -12 5 -19 13 -16 10 3 15 115 8 215 -2 21 -21 13
-21 -9 l0 -20 -26 20 c-31 25 -87 27 -126 5z m109 -24 c92 -56 17 -197 -82
-156 -72 30 -76 123 -7 160 36 20 51 20 89 -4z"/>
<path d="M4530 241 c0 -44 5 -91 11 -104 28 -62 140 -62 168 0 14 30 15 183 1
183 -6 0 -10 -28 -10 -65 0 -112 -38 -160 -106 -135 -28 11 -35 32 -39 123 -6
101 -25 100 -25 -2z"/>
<path d="M4822 208 c2 -72 7 -113 14 -115 8 -3 13 23 15 80 4 90 22 127 61
127 10 0 18 5 18 10 0 16 -42 12 -62 -7 -17 -15 -18 -15 -18 0 0 10 -7 17 -15
17 -13 0 -15 -17 -13 -112z"/>
<path d="M5050 303 c-52 -36 -68 -84 -46 -137 22 -52 63 -79 114 -73 24 2 52
13 62 22 19 17 20 17 20 -4 0 -14 5 -21 13 -19 8 3 12 35 12 113 0 78 -4 110
-12 113 -8 2 -13 -5 -13 -18 l0 -21 -26 20 c-33 26 -90 27 -124 4z m128 -39
c24 -27 29 -73 11 -106 -17 -31 -71 -50 -108 -37 -31 11 -61 52 -61 83 0 31
26 69 55 82 39 17 74 10 103 -22z"/>
<path d="M5629 305 c-15 -8 -34 -31 -44 -51 -30 -64 -2 -127 68 -153 33 -13
103 1 110 22 9 24 19 -2 12 -32 -13 -61 -102 -78 -162 -31 -29 22 -37 21 -27
-4 15 -40 114 -63 162 -37 45 24 54 54 56 178 1 85 -2 117 -11 120 -7 3 -13
-2 -13 -11 0 -20 -9 -20 -34 -1 -25 19 -83 19 -117 0z m101 -20 c32 -17 50
-43 50 -74 0 -80 -97 -121 -154 -65 -45 46 -32 114 27 139 41 18 42 18 77 0z"/>
<path d="M5954 301 c-29 -18 -54 -63 -54 -98 0 -31 34 -85 63 -100 37 -18 100
-12 128 13 18 16 19 16 19 -5 0 -14 5 -21 13 -19 8 3 12 35 12 113 0 78 -4
110 -12 113 -8 2 -13 -5 -13 -18 l0 -21 -26 20 c-34 26 -89 27 -130 2z m113
-21 c89 -54 22 -193 -76 -159 -68 24 -79 122 -18 159 40 25 54 25 94 0z"/>
<path d="M6258 308 c-17 -13 -21 -28 -19 -60 0 -9 21 -31 46 -48 49 -34 58
-62 24 -80 -16 -9 -26 -8 -44 4 -30 19 -48 0 -20 -21 40 -29 95 -10 110 37 8
27 -6 49 -51 80 -42 28 -50 56 -22 73 13 9 21 7 36 -7 15 -13 22 -14 28 -5 17
29 -56 51 -88 27z"/>
<path d="M2676 114 c-18 -40 -20 -54 -6 -54 5 0 19 18 30 39 15 31 17 40 6 44
-8 3 -20 -8 -30 -29z"/>
<path d="M24 125 c-4 -9 -2 -21 4 -27 15 -15 44 -1 40 19 -4 23 -36 29 -44 8z"/>
<path d="M184 125 c-7 -18 3 -35 21 -35 18 0 26 15 19 34 -8 20 -33 21 -40 1z"/>
<path d="M344 125 c-4 -9 -2 -21 4 -27 15 -15 44 -1 40 19 -4 23 -36 29 -44 8z"/>
</g>
</svg>
